<?xml version="1.0" encoding="utf-8"?>
<!-- Generator: Adobe Illustrator 16.0.0, SVG Export Plug-In . SVG Version: 6.00 Build 0)  -->
<!DOCTYPE svg PUBLIC "-//W3C//DTD SVG 1.1//EN" "http://www.w3.org/Graphics/SVG/1.1/DTD/svg11.dtd">
<svg version="1.1" id="Ebene_1" xmlns="http://www.w3.org/2000/svg" xmlns:xlink="http://www.w3.org/1999/xlink" x="0px" y="0px"
	 width="122.167px" height="29.557px" viewBox="0 0 122.167 29.557" enable-background="new 0 0 122.167 29.557"
	 xml:space="preserve">
<path fill="#ffffff" d="M25.455,20.104c-8.862,5.553-18.124,9.099-22.291,8.281c-2.325-0.457-2.652-2.192-1.308-4.673
	C9.168,24.716,18.354,23.106,25.455,20.104L25.455,20.104z M28.72,3.798c4.74-1.98,8.84-2.961,11.244-2.49
	c3.446,0.677,2.504,4.161-1.761,8.717C39.936,5.751,33.848,4.287,28.72,3.798L28.72,3.798z M24.657,5.663
	c0.61-0.304,1.215-0.595,1.813-0.873c7.638,2.928,5.067,7.264-0.855,11.291c-7.47,5.081-17.758,6.448-23.271,6.811
	c0.153-0.238,0.319-0.481,0.499-0.729c8.503-0.276,16.768-3.082,21.824-6.85C31.289,10.377,27.838,7.242,24.657,5.663L24.657,5.663z
	 M12.538,13.075c3.094-2.276,6.384-4.348,9.605-6.101c2.283,1.165,5.455,2.597-1.48,7.747c-5.097,3.784-13.167,5.954-17.407,6.892
	C5.194,19.115,8.362,16.147,12.538,13.075L12.538,13.075z"/>
<polygon fill="#ffffff" points="38.064,11.476 31.661,11.476 31.335,13.268 33.502,13.268 32.215,19.948 34.285,19.948 
	35.555,13.268 37.739,13.268 38.064,11.476 "/>
<polygon fill="#ffffff" points="44.755,11.476 39.638,11.476 38.025,19.948 43.142,19.948 43.451,18.27 40.404,18.27 40.746,16.413 
	43.663,16.413 43.956,14.815 41.056,14.815 41.382,13.121 44.445,13.121 44.755,11.476 "/>
<path fill="#ffffff" d="M52.604,11.557c-0.505-0.147-1.157-0.212-1.809-0.212c-3.568,0-5.344,2.77-5.344,5.588
	c0,1.907,1.108,3.145,3.601,3.145c0.668,0,1.434-0.163,2.053-0.326l0.212-1.858c-0.521,0.196-1.092,0.31-1.76,0.31
	c-1.222,0-1.857-0.668-1.857-1.694c0-1.352,0.864-3.389,2.933-3.389c0.457,0,1.01,0.097,1.467,0.277L52.604,11.557L52.604,11.557z"
	/>
<polygon fill="#ffffff" points="62.245,11.476 60.192,11.476 59.589,14.718 56.053,14.718 56.656,11.476 54.603,11.476 
	52.99,19.948 55.043,19.948 55.679,16.526 59.23,16.526 58.579,19.948 60.632,19.948 62.245,11.476 "/>
<path fill-rule="evenodd" clip-rule="evenodd" fill="#ffffff" d="M71.835,14.555c0-2.021-1.287-3.129-3.91-3.129
	c-0.913,0-2.411,0.033-3.161,0.049l-1.613,8.456c0.765,0.033,1.662,0.065,3.063,0.065C69.604,19.997,71.835,17.749,71.835,14.555
	L71.835,14.555z M69.586,14.881c0,1.14-0.651,3.356-3.193,3.356c-0.293,0-0.667-0.017-0.847-0.049l0.945-5.002
	c0.293-0.033,0.667-0.049,1.124-0.049C69.049,13.137,69.586,13.903,69.586,14.881L69.586,14.881z"/>
<polygon fill="#ffffff" points="76.41,11.476 74.356,11.476 72.744,19.948 74.797,19.948 76.41,11.476 "/>
<path fill="#ffffff" d="M86.26,11.459h-2.232l-2.151,3.942c-0.358,0.652-0.749,1.467-1.076,2.265h-0.016
	c-0.065-0.75-0.147-1.548-0.278-2.265l-0.7-3.926h-2.134l1.482,8.472h2.428L86.26,11.459L86.26,11.459z"/>
<polygon fill="#ffffff" points="89.579,11.476 87.526,11.476 85.913,19.948 87.966,19.948 89.579,11.476 "/>
<path fill="#ffffff" d="M96.285,11.442c-0.44-0.064-0.929-0.13-1.678-0.13c-2.395,0-3.584,1.5-3.584,3.047
	c0,2.004,2.444,1.825,2.444,2.981c0,0.554-0.456,1.043-1.336,1.043c-0.57,0-1.108-0.114-1.515-0.293l-0.407,1.841
	c0.456,0.114,1.01,0.196,1.776,0.196c2.232,0,3.796-1.369,3.796-3.145c0-2.004-2.493-1.955-2.493-3.014
	c0-0.635,0.489-0.978,1.287-0.978c0.473,0,0.913,0.082,1.32,0.212L96.285,11.442L96.285,11.442z"/>
<polygon fill="#ffffff" points="100.907,11.475 98.854,11.475 97.241,19.948 99.294,19.948 100.907,11.475 "/>
<path fill-rule="evenodd" clip-rule="evenodd" fill="#ffffff" d="M110.561,14.653c0-2.086-1.238-3.324-3.47-3.324
	c-3.177,0-5.279,2.607-5.279,5.54c0,2.004,1.156,3.226,3.519,3.226C108.118,20.095,110.561,17.765,110.561,14.653L110.561,14.653z
	 M108.395,14.881c0,1.596-1.011,3.356-2.819,3.356c-1.076,0-1.597-0.636-1.597-1.663c0-2.167,1.352-3.405,2.77-3.405
	C107.84,13.17,108.395,13.854,108.395,14.881L108.395,14.881z"/>
<path fill="#ffffff" d="M121.065,11.475h-1.987l-0.685,3.618c-0.163,0.896-0.293,1.596-0.341,2.085h-0.017
	c-0.163-0.554-0.374-1.107-0.57-1.613l-1.678-4.09h-2.705l-1.613,8.473h1.987l0.798-4.252c0.13-0.652,0.195-1.075,0.261-1.499h0.017
	c0.114,0.489,0.326,1.075,0.505,1.548l1.71,4.203h2.705L121.065,11.475L121.065,11.475z"/>
</svg>
